<svg width="40" height="40" viewBox="0 0 40 40" fill="none" xmlns="http://www.w3.org/2000/svg">
<g clip-path="url(#clip0_2852_254)">
<path d="M24.7858 13.5325C24.7959 14.085 24.5791 14.5186 24.1455 14.8449C23.6154 15.2438 23.0074 15.4359 22.3501 15.4506C21.7027 15.4652 21.3694 15.0957 21.4258 14.4522C21.4381 14.3087 21.4697 14.1652 21.5068 14.0255C21.6989 13.2872 21.2591 12.6576 20.4999 12.6013C19.9583 12.5612 19.4522 12.7085 18.9684 12.9353C17.9716 13.4029 17.1792 14.1282 16.4802 14.9599C15.5227 16.0987 14.7619 17.3509 14.4302 18.8184C14.3407 19.215 14.3067 19.6478 14.3584 20.0498C14.549 21.5443 15.8799 21.9192 16.9176 21.8243C17.6537 21.7572 18.3373 21.3853 18.8766 20.8938C19.4174 20.4008 19.6967 19.5884 19.9367 18.9094C20.1535 18.2945 20.2862 17.6456 20.5747 17.06C20.7615 16.682 21.2182 16.584 21.6279 16.5662C22.1178 16.5454 22.624 16.5855 23.1016 16.692C23.6733 16.8201 23.8561 17.1596 23.5984 17.7313C23.5984 17.7313 20.9636 22.8327 19.4151 25.8726C18.9815 26.6303 18.4916 27.641 17.7455 28.3547C16.8104 29.2505 15.8267 29.117 15.0875 29.0877C14.7982 29.0761 14.3137 28.9889 14.4194 28.5815C14.4803 28.3462 15.0744 27.7228 15.4255 27.3092C15.7819 26.8888 16.2834 26.1079 16.5766 25.6419C17.6328 23.9623 18.1143 22.6823 18.1143 22.6823C17.7085 22.9022 17.3929 23.0912 17.0627 23.2486C16.0442 23.7347 14.9687 24.0225 13.8422 23.8674C12.2598 23.649 11.1017 22.2919 11.0253 20.694C10.9613 19.3662 11.3486 18.1525 11.9558 17.0029C13.3045 14.4514 15.2225 12.4717 17.8983 11.3112C19.473 10.6284 21.1117 10.4317 22.7806 10.9671C23.9989 11.3583 24.765 12.3652 24.7866 13.5318L24.7858 13.5325ZM28.8272 21.8644C27.997 22.9384 26.9253 23.6205 25.5774 23.8195C25.0042 23.9044 24.5135 23.8627 24.0984 23.6946C22.9881 23.2694 22.7112 22.3204 22.6849 21.5574C22.6471 21.0744 22.7474 20.6454 22.8053 20.4456C22.8053 20.4456 22.8963 20.1354 23.0877 19.7604C23.4318 19.1293 24.2033 18.2752 24.1948 18.2906C24.8306 17.6209 25.4008 17.1897 26.187 16.925C26.9284 16.675 27.6938 16.6519 28.4592 16.8563C29.0023 17.0014 29.5023 17.3262 29.726 17.8524C29.9529 18.3855 29.9706 19.1633 29.8094 19.7628C29.8125 19.7751 29.4591 21.0173 28.828 21.8637L28.8272 21.8644ZM27.4045 18.8006C27.3073 18.7312 27.1769 18.6973 27.0264 18.6973C26.8598 18.6973 26.6684 18.7397 26.474 18.8238C25.5674 19.218 24.9548 20.3175 25.1083 21.2742C25.1462 21.5057 25.2395 21.68 25.3799 21.7773C25.518 21.8729 25.6994 21.8999 25.92 21.8552C26.869 21.6654 27.6398 20.6485 27.639 19.5876V19.5745C27.6598 19.3129 27.6359 18.9657 27.4037 18.8006H27.4045Z" fill="#F5F5F5"/>
<path d="M30.7893 36.7078C30.5609 36.7078 30.3364 36.5983 30.1991 36.3946C29.9792 36.069 30.0648 35.6269 30.3904 35.407C31.3742 34.7427 32.2992 33.9797 33.1394 33.1394C33.9797 32.2992 34.7427 31.3742 35.407 30.3904C35.6269 30.0648 36.069 29.9792 36.3946 30.1991C36.7202 30.419 36.8058 30.8611 36.5859 31.1867C35.8707 32.246 35.0498 33.2413 34.1448 34.1455C33.2405 35.0498 32.2452 35.8715 31.1859 36.5867C31.064 36.6693 30.9251 36.7086 30.7885 36.7086L30.7893 36.7078Z" fill="#F5F5F5"/>
<path d="M19.9997 39.9997C18.6418 39.9997 17.2854 39.8631 15.9676 39.5939C14.6822 39.3308 13.4184 38.9396 12.2109 38.4288C11.0258 37.9281 9.8824 37.3078 8.81304 36.5856C7.7537 35.8704 6.75841 35.0495 5.85416 34.1445C4.94914 33.2394 4.12821 32.2441 3.41299 31.1856C2.69082 30.1162 2.0705 28.9728 1.56977 27.7877C1.05978 26.5802 0.667831 25.3164 0.404734 24.031C0.135465 22.7132 -0.00109863 21.3561 -0.00109863 19.9989C-0.00109863 18.6418 0.135465 17.2846 0.404734 15.9668C0.66706 14.6822 1.059 13.4184 1.56977 12.2102C2.0705 11.0243 2.69082 9.88167 3.41299 8.81231C3.63288 8.48671 4.07498 8.40107 4.40057 8.62096C4.72616 8.84085 4.8118 9.28295 4.59191 9.60854C3.92144 10.6015 3.34587 11.6632 2.88062 12.7642C2.40689 13.8852 2.04273 15.0587 1.79892 16.2515C1.54894 17.476 1.42163 18.7367 1.42163 19.9989C1.42163 21.2612 1.54816 22.5219 1.79892 23.7463C2.04273 24.9391 2.40689 26.1127 2.88062 27.2337C3.34587 28.3347 3.92144 29.3964 4.59191 30.3893C5.25621 31.3731 6.01927 32.2981 6.85948 33.1384C7.6997 33.9786 8.62478 34.7416 9.6085 35.4059C10.6015 36.0764 11.6631 36.652 12.7641 37.1172C13.8852 37.5909 15.0579 37.9551 16.2515 38.1989C18.7004 38.6997 21.2974 38.6997 23.7463 38.1989C24.1305 38.121 24.507 38.3687 24.5857 38.7537C24.6644 39.1387 24.416 39.5144 24.031 39.5931C22.7132 39.8624 21.3561 39.9989 19.9989 39.9989L19.9997 39.9997Z" fill="#F5F5F5"/>
<path d="M9.21217 4.71496C8.98379 4.71496 8.75927 4.6054 8.62194 4.40171C8.40205 4.07612 8.48769 3.63402 8.81328 3.41413C9.88264 2.69197 11.0253 2.07242 12.2112 1.57091C12.573 1.41814 12.9904 1.58711 13.1432 1.94897C13.296 2.31082 13.127 2.72823 12.7651 2.881C11.6641 3.34624 10.6025 3.92181 9.60952 4.59228C9.48761 4.67484 9.34873 4.71419 9.21217 4.71419V4.71496Z" fill="#F5F5F5"/>
<path d="M39.2882 20.7114C38.8955 20.7114 38.5768 20.3927 38.5768 20C38.5768 18.7378 38.4503 17.477 38.1996 16.2526C37.9557 15.059 37.5916 13.8863 37.1179 12.7652C36.6526 11.6642 36.077 10.6026 35.4066 9.6096C34.7423 8.62588 33.9792 7.7008 33.139 6.86058C32.298 6.0196 31.3737 5.25654 30.39 4.59301C29.397 3.92254 28.3353 3.34619 27.2344 2.88172C26.1133 2.40799 24.9398 2.04382 23.747 1.80002C22.5225 1.55003 21.2618 1.42273 19.9996 1.42273C19.6069 1.42273 19.2882 1.10408 19.2882 0.711365C19.2882 0.318648 19.6069 0 19.9996 0C21.3575 0 22.7139 0.136564 24.0317 0.405833C25.3171 0.668158 26.5809 1.0601 27.7883 1.57087C28.9734 2.0716 30.1168 2.69192 31.1862 3.41409C32.2448 4.12931 33.2401 4.95024 34.1451 5.85526C35.0493 6.75951 35.871 7.7548 36.5863 8.81414C37.3084 9.8835 37.9287 11.0262 38.4295 12.212C38.9395 13.4195 39.3314 14.6833 39.5945 15.9687C39.8638 17.2865 40.0003 18.6436 40.0003 20.0008C40.0003 20.3935 39.6817 20.7121 39.289 20.7121L39.2882 20.7114Z" fill="#F5F5F5"/>
<path d="M38.7027 25.4568C38.6448 25.4568 38.5862 25.4499 38.5276 25.4352C38.1464 25.3388 37.9157 24.9522 38.0122 24.5711C38.0847 24.2833 38.1518 23.9901 38.2104 23.6985C38.2884 23.3135 38.6641 23.0643 39.0491 23.1422C39.4341 23.2201 39.6833 23.5959 39.6054 23.9809C39.5421 24.2949 39.4696 24.6112 39.3917 24.9206C39.3099 25.2431 39.0206 25.4576 38.7027 25.4576V25.4568Z" fill="#F5F5F5"/>
<path d="M37.8189 28.1156C37.7279 28.1156 37.6353 28.0979 37.5458 28.0608C37.1831 27.9096 37.0111 27.4937 37.1623 27.1311C37.2765 26.8564 37.3861 26.5725 37.4887 26.2894C37.6214 25.9198 38.0295 25.7277 38.3991 25.8604C38.7687 25.9931 38.9608 26.4005 38.8281 26.7708C38.7185 27.0763 38.5997 27.3811 38.477 27.6774C38.3636 27.9505 38.099 28.1156 37.8197 28.1156H37.8189Z" fill="#F5F5F5"/>
<path d="M5.21651 24.7023C4.4442 24.7023 3.75289 24.1607 3.59241 23.3745C3.36712 22.2712 3.25293 21.1354 3.25293 19.9997C3.25293 18.864 3.36712 17.7283 3.59241 16.625C3.8123 15.5487 4.14098 14.4901 4.56841 13.4786C4.98814 12.4857 5.50739 11.5282 6.11228 10.6332C6.711 9.74667 7.39844 8.9134 8.15533 8.15574C8.91222 7.39885 9.74626 6.71063 10.6328 6.11269C11.5278 5.5078 12.4852 4.98855 13.4782 4.56882C14.4897 4.14139 15.5483 3.81271 16.6254 3.59282C18.832 3.14224 21.1682 3.14224 23.3748 3.59282C24.4511 3.81271 25.5097 4.14139 26.5212 4.56882C27.5142 4.98855 28.4717 5.5078 29.3667 6.11269C30.2532 6.71141 31.0864 7.39885 31.8441 8.15574C32.6017 8.9134 33.2892 9.74667 33.8879 10.6332C34.401 11.3931 34.2012 12.4247 33.4412 12.937C32.6812 13.4501 31.6497 13.2503 31.1374 12.4903C30.6574 11.7789 30.105 11.11 29.4978 10.5028C28.8898 9.8948 28.2209 9.34315 27.5103 8.86325C26.7928 8.37872 26.0259 7.96208 25.2304 7.62646C24.4203 7.28389 23.5731 7.02157 22.7113 6.84566C20.9406 6.4838 19.0611 6.4838 17.2904 6.84566C16.4286 7.02157 15.5807 7.28466 14.7713 7.62646C13.9759 7.96285 13.209 8.37872 12.4914 8.86325C11.78 9.34392 11.1111 9.89557 10.5039 10.5028C9.89594 11.1108 9.34428 11.7789 8.86438 12.4903C8.37985 13.2078 7.96321 13.9747 7.62759 14.7702C7.28503 15.5803 7.0227 16.4275 6.84679 17.2893C6.66548 18.1743 6.57443 19.0862 6.57443 19.9997C6.57443 20.9132 6.66625 21.8252 6.84679 22.7102C7.03042 23.6082 6.45099 24.4847 5.55291 24.6684C5.44103 24.6915 5.32916 24.7023 5.21883 24.7023H5.21651Z" fill="#F5F5F5"/>
<path d="M11.5597 34.1728C11.2402 34.1728 10.917 34.081 10.6323 33.8881C9.74576 33.2894 8.91249 32.602 8.15483 31.8451C7.39718 31.0874 6.70973 30.2541 6.11178 29.3676C5.5987 28.6077 5.79853 27.5761 6.55851 27.0638C7.31848 26.5507 8.35003 26.7506 8.86234 27.5105C9.34224 28.2219 9.8939 28.8901 10.5019 29.498C11.1099 30.106 11.778 30.6577 12.4894 31.1376C13.2493 31.6506 13.4492 32.6822 12.9361 33.4414C12.6151 33.9159 12.092 34.1721 11.5589 34.1721L11.5597 34.1728Z" fill="#F5F5F5"/>
<path d="M19.9996 36.7468C18.8639 36.7468 17.7281 36.6326 16.6248 36.4066C15.7268 36.2229 15.1473 35.3465 15.331 34.4484C15.5146 33.5503 16.3911 32.9709 17.2891 33.1545C19.0598 33.5164 20.9385 33.5164 22.71 33.1545C23.5718 32.9786 24.4198 32.7155 25.2291 32.3737C26.0246 32.0373 26.7915 31.6215 27.509 31.1369C28.2204 30.657 28.8886 30.1054 29.4965 29.4974C30.1045 28.8894 30.6562 28.2205 31.1361 27.5099C31.6206 26.7923 32.0372 26.0247 32.3729 25.23C32.7154 24.4198 32.9777 23.5727 33.1537 22.7109C33.335 21.8251 33.426 20.9132 33.426 20.0004C33.426 19.0877 33.3342 18.1757 33.1537 17.29C32.97 16.3919 33.5495 15.5154 34.4475 15.3318C35.3448 15.1482 36.2221 15.7276 36.4057 16.6257C36.631 17.729 36.746 18.8647 36.746 20.0004C36.746 21.1361 36.6318 22.2719 36.4057 23.3752C36.1858 24.4515 35.8572 25.51 35.4297 26.5223C35.01 27.5153 34.4907 28.4728 33.8866 29.3678C33.2879 30.2543 32.6005 31.0875 31.8436 31.8452C31.0859 32.6029 30.2526 33.2903 29.3661 33.889C28.4704 34.4939 27.5137 35.0132 26.5207 35.4321C25.5092 35.8595 24.4506 36.1882 23.3743 36.4081C22.2702 36.6334 21.1353 36.7484 19.9996 36.7484V36.7468Z" fill="#F5F5F5"/>
</g>
<defs>
<clipPath id="clip0_2852_254">
<rect width="40" height="40" fill="white"/>
</clipPath>
</defs>
</svg>
