<svg width="148" height="48" viewBox="0 0 148 48" fill="none" xmlns="http://www.w3.org/2000/svg">
<path d="M74 0.5C94.3969 0.5 112.843 3.18188 126.172 7.50488C132.839 9.66727 138.199 12.2314 141.881 15.0547C145.57 17.8836 147.5 20.9112 147.5 24C147.5 27.0888 145.57 30.1164 141.881 32.9453C138.199 35.7686 132.839 38.3327 126.172 40.4951C112.843 44.8181 94.3969 47.5 74 47.5C53.6031 47.5 35.1574 44.8181 21.8281 40.4951C15.1608 38.3327 9.80113 35.7686 6.11914 32.9453C2.42995 30.1164 0.5 27.0888 0.5 24C0.5 20.9112 2.42995 17.8836 6.11914 15.0547C9.80113 12.2314 15.1608 9.66727 21.8281 7.50488C35.1574 3.18188 53.6031 0.5 74 0.5Z" stroke="#9747FF"/>
</svg>
