<svg width="356" height="51" viewBox="0 0 356 51" fill="none" xmlns="http://www.w3.org/2000/svg">
<path d="M178 0.5C227.137 0.5 271.612 3.35358 303.794 7.96387C319.889 10.2696 332.887 13.0117 341.852 16.0479C346.337 17.567 349.782 19.1502 352.097 20.7705C354.429 22.4034 355.5 23.9917 355.5 25.5C355.5 27.0083 354.429 28.5966 352.097 30.2295C349.782 31.8498 346.337 33.433 341.852 34.9521C332.887 37.9883 319.889 40.7304 303.794 43.0361C271.612 47.6464 227.137 50.5 178 50.5C128.863 50.5 84.3877 47.6464 52.2061 43.0361C36.1114 40.7304 23.1127 37.9883 14.1484 34.9521C9.66317 33.433 6.21776 31.8498 3.90332 30.2295C1.57094 28.5966 0.5 27.0083 0.5 25.5C0.5 23.9917 1.57094 22.4034 3.90332 20.7705C6.21776 19.1502 9.66317 17.567 14.1484 16.0479C23.1127 13.0117 36.1114 10.2696 52.2061 7.96387C84.3877 3.35358 128.863 0.5 178 0.5Z" stroke="#07DDDA"/>
</svg>
